<?xml version="1.0" encoding="UTF-8" standalone="no"?>
<svg
   xmlns:dc="http://purl.org/dc/elements/1.1/"
   xmlns:cc="http://creativecommons.org/ns#"
   xmlns:rdf="http://www.w3.org/1999/02/22-rdf-syntax-ns#"
   xmlns:svg="http://www.w3.org/2000/svg"
   xmlns="http://www.w3.org/2000/svg"
   xmlns:sodipodi="http://sodipodi.sourceforge.net/DTD/sodipodi-0.dtd"
   xmlns:inkscape="http://www.inkscape.org/namespaces/inkscape"
   width="212px"
   height="46px"
   viewBox="0 0 212 46"
   version="1.1"
   id="svg4648"
   sodipodi:docname="critical-stack-text.svg"
   inkscape:version="0.92.3 (2405546, 2018-03-11)">
  <metadata
     id="metadata4652">
    <rdf:RDF>
      <cc:Work
         rdf:about="">
        <dc:format>image/svg+xml</dc:format>
        <dc:type
           rdf:resource="http://purl.org/dc/dcmitype/StillImage" />
      </cc:Work>
    </rdf:RDF>
  </metadata>
  <sodipodi:namedview
     pagecolor="#ffffff"
     bordercolor="#666666"
     borderopacity="1"
     objecttolerance="10"
     gridtolerance="10"
     guidetolerance="10"
     inkscape:pageopacity="0"
     inkscape:pageshadow="2"
     inkscape:window-width="2067"
     inkscape:window-height="1119"
     id="namedview4650"
     showgrid="false"
     inkscape:zoom="5.6509434"
     inkscape:cx="106"
     inkscape:cy="23"
     inkscape:window-x="238"
     inkscape:window-y="61"
     inkscape:window-maximized="0"
     inkscape:current-layer="svg4648" />
  <!-- Generator: Sketch 50.2 (55047) - http://www.bohemiancoding.com/sketch -->
  <title
     id="title4605">download (1)</title>
  <desc
     id="desc4607">Created with Sketch.</desc>
  <defs
     id="defs4609" />
  <g
     id="Page-1"
     stroke="none"
     stroke-width="1"
     fill="none"
     fill-rule="evenodd">
    <g
       id="download-(1)"
       fill-rule="nonzero">
      <path
         d="M81.74,10.45 L80.11,10.45 C79.8228119,10.45 79.59,10.6828119 79.59,10.97 L79.59,12.76 C79.59,13.0471881 79.8228119,13.28 80.11,13.28 L81.74,13.28 C81.877011,13.2800263 82.0082703,13.2249238 82.1042066,13.1271064 C82.2001428,13.029289 82.2526865,12.8969846 82.25,12.76 L82.25,11 C82.2526865,10.8630154 82.2001428,10.730711 82.1042066,10.6328936 C82.0082703,10.5350762 81.877011,10.4799737 81.74,10.48"
         id="Shape"
         fill="#FFFFFF" />
      <path
         d="M98.82,10.45 L97.2,10.45 C96.9128119,10.45 96.68,10.6828119 96.68,10.97 L96.68,12.76 C96.68,13.0471881 96.9128119,13.28 97.2,13.28 L98.82,13.28 C99.1071881,13.28 99.34,13.0471881 99.34,12.76 L99.34,11 C99.34,10.7128119 99.1071881,10.48 98.82,10.48"
         id="path4612"
         fill="#FFFFFF" />
      <path
         d="M65.37,26.21 C65.1589027,26.0314657 64.8439922,26.0536425 64.66,26.26 C63.6598314,27.5260385 62.1525694,28.2869862 60.54,28.34 C59.1577281,28.3012517 57.8491103,27.7082508 56.9086775,26.6944642 C55.9682448,25.6806777 55.4750151,24.3312871 55.54,22.95 C55.4608007,21.5899232 55.9400204,20.2564222 56.8668367,19.2578767 C57.793653,18.2593313 59.0878004,17.6822189 60.45,17.66 C62.0529837,17.7304933 63.5490632,18.4839932 64.56,19.73 C64.656803,19.8309135 64.7901702,19.8885858 64.93,19.89 C65.0668396,19.8881807 65.1969529,19.8303525 65.29,19.73 L66.21,18.73 C66.3046563,18.6361167 66.3578992,18.5083188 66.3578992,18.375 C66.3578992,18.2416812 66.3046563,18.1138833 66.21,18.02 C64.7723009,16.3449997 62.6773838,15.3778341 60.47,15.37 C56.2836817,15.3700002 52.8900003,18.7636817 52.8900003,22.95 C52.8900003,27.1363183 56.2836817,30.5299998 60.47,30.53 C62.7607334,30.5451052 64.9275295,29.4912879 66.33,27.68 C66.5230223,27.47881 66.5230223,27.16119 66.33,26.96 L65.37,26.21 Z"
         id="path4614"
         fill="#FFFFFF" />
      <path
         d="M76.82,15.53 C74.6723993,15.4692866 72.6331354,16.4720806 71.37,18.21 L71.37,16.21 C71.37,16.0747396 71.316268,15.9450191 71.2206245,15.8493755 C71.1249809,15.753732 70.9952604,15.7 70.86,15.7 L69.57,15.7 C69.4330154,15.6973135 69.300711,15.7498572 69.2028936,15.8457934 C69.1050762,15.9417297 69.0499737,16.072989 69.05,16.21 L69.05,29.71 C69.0499737,29.847011 69.1050762,29.9782703 69.2028936,30.0742066 C69.300711,30.1701428 69.4330154,30.2226865 69.57,30.22 L70.86,30.22 C71.1416652,30.22 71.37,29.9916652 71.37,29.71 L71.37,24.18 C71.37,19.87 74.03,17.94 76.67,17.94 L76.81,17.94 C77.0916652,17.94 77.32,17.7116652 77.32,17.43 L77.32,16 C77.3200534,15.7221943 77.0977523,15.4954472 76.82,15.49"
         id="path4616"
         fill="#FFFFFF" />
      <path
         d="M81.57,15.74 L80.28,15.74 C80.1447396,15.74 80.0150191,15.793732 79.9193755,15.8893755 C79.823732,15.9850191 79.77,16.1147396 79.77,16.25 L79.77,29.75 C79.77,30.0316652 79.9983348,30.26 80.28,30.26 L81.57,30.26 C81.8516652,30.26 82.08,30.0316652 82.08,29.75 L82.08,16.25 C82.08,16.1147396 82.026268,15.9850191 81.9306245,15.8893755 C81.8349809,15.793732 81.7052604,15.74 81.57,15.74"
         id="path4618"
         fill="#FFFFFF" />
      <path
         d="M93.36,15.74 L89.16,15.74 L89.16,11.94 C89.1626865,11.8030154 89.1101428,11.670711 89.0142066,11.5728936 C88.9182703,11.4750762 88.787011,11.4199737 88.65,11.42 L87.36,11.42 C87.222989,11.4199737 87.0917297,11.4750762 86.9957934,11.5728936 C86.8998572,11.670711 86.8473135,11.8030154 86.85,11.94 L86.85,15.74 L85.41,15.74 C85.2747396,15.74 85.1450191,15.793732 85.0493755,15.8893755 C84.953732,15.9850191 84.9,16.1147396 84.9,16.25 L84.9,17.44 C84.8973135,17.5769846 84.9498572,17.709289 85.0457934,17.8071064 C85.1417297,17.9049238 85.272989,17.9600263 85.41,17.96 L86.85,17.96 L86.85,26.28 C86.7631268,27.4343567 87.1883048,28.568509 88.012624,29.3812723 C88.8369432,30.1940357 89.9769847,30.6031605 91.13,30.5 C91.9591065,30.511153 92.7798631,30.3333224 93.53,29.98 C93.7087477,29.8918527 93.8213893,29.7092956 93.82,29.51 L93.82,28.29 C93.821794,28.1158744 93.7346214,27.9528684 93.5888045,27.8576824 C93.4429877,27.7624964 93.2586832,27.7482882 93.1,27.82 C92.5564827,28.1040452 91.9532424,28.2548552 91.34,28.26 C89.85,28.26 89.16,27.59 89.16,26.15 L89.16,18 L93.36,18 C93.4979126,18 93.6301766,17.9452144 93.7276955,17.8476955 C93.8252144,17.7501766 93.88,17.6179126 93.88,17.48 L93.88,16.29 C93.8800263,16.152989 93.8249238,16.0217297 93.7271064,15.9257934 C93.629289,15.8298572 93.4969846,15.7773135 93.36,15.78"
         id="path4620"
         fill="#FFFFFF" />
      <path
         d="M98.66,15.74 L97.37,15.74 C97.2347396,15.74 97.1050191,15.793732 97.0093755,15.8893755 C96.913732,15.9850191 96.86,16.1147396 96.86,16.25 L96.86,29.75 C96.86,30.0316652 97.0883348,30.26 97.37,30.26 L98.66,30.26 C98.9416652,30.26 99.17,30.0316652 99.17,29.75 L99.17,16.25 C99.17,16.1147396 99.116268,15.9850191 99.0206245,15.8893755 C98.9249809,15.793732 98.7952604,15.74 98.66,15.74"
         id="path4622"
         fill="#FFFFFF" />
      <path
         d="M114.58,26.21 C114.365621,26.0302859 114.047481,26.052379 113.86,26.26 C112.859831,27.5260385 111.352569,28.2869862 109.74,28.34 C108.357728,28.3012517 107.04911,27.7082508 106.108678,26.6944642 C105.168245,25.6806777 104.675015,24.3312871 104.74,22.95 C104.677756,21.5942736 105.162731,20.2703704 106.085991,19.2756555 C107.009252,18.2809406 108.2934,17.6988037 109.65,17.66 C111.255863,17.7302208 112.755134,18.4834957 113.77,19.73 C113.861577,19.8323892 113.992634,19.8906366 114.13,19.89 C114.26983,19.8885858 114.403197,19.8309135 114.5,19.73 L115.42,18.73 C115.611783,18.5321863 115.611783,18.2178137 115.42,18.02 C113.983946,16.3428239 111.887973,15.3751709 109.68,15.37 C105.493682,15.3700002 102.1,18.7636817 102.1,22.95 C102.1,27.1363183 105.493682,30.5299998 109.68,30.53 C111.971435,30.5482029 114.139533,29.4937524 115.54,27.68 C115.738336,27.4809763 115.738336,27.1590237 115.54,26.96 L114.58,26.21 Z"
         id="path4624"
         fill="#FFFFFF" />
      <path
         d="M123.64,15.53 C121.902559,15.5442649 120.191719,15.9582882 118.64,16.74 C118.393436,16.8575627 118.279865,17.1458586 118.38,17.4 L118.86,18.54 C118.909702,18.6721547 119.016183,18.7749638 119.15,18.82 C119.281133,18.8750021 119.428867,18.8750021 119.56,18.82 C120.790908,18.1630503 122.164752,17.8195891 123.56,17.82 C125.33,17.82 127.44,18.44 127.47,21.36 C126.17891,21.0567526 124.85618,20.9090365 123.53,20.92 C119.66,20.92 117.15,22.85 117.15,25.92 C117.15,28.99 120.09,30.67 122.85,30.67 C124.555025,30.7080435 126.209317,30.0885793 127.47,28.94 L127.47,29.84 C127.47,30.1216652 127.698335,30.35 127.98,30.35 L129.25,30.35 C129.531665,30.35 129.76,30.1216652 129.76,29.84 L129.76,21.42 C129.76,17.79 127.47,15.62 123.64,15.62 M122.93,28.43 C121.25,28.43 119.54,27.54 119.54,25.79 C119.54,24.04 121.01,23.15 123.46,23.15 C124.80855,23.1558078 126.151514,23.3236783 127.46,23.65 L127.46,24.78 C127.46,26.86 125.46,28.43 122.89,28.43"
         id="path4626"
         fill="#FFFFFF" />
      <path
         d="M135.35,9.92 L134.06,9.92 C133.778335,9.92 133.55,10.1483348 133.55,10.43 L133.55,29.75 C133.55,30.0316652 133.778335,30.26 134.06,30.26 L135.35,30.26 C135.486985,30.2626865 135.619289,30.2101428 135.717106,30.1142066 C135.814924,30.0182703 135.870026,29.887011 135.87,29.75 L135.87,10.43 C135.870026,10.292989 135.814924,10.1617297 135.717106,10.0657934 C135.619289,9.96985716 135.486985,9.91731351 135.35,9.92"
         id="path4628"
         fill="#FFFFFF" />
      <path
         d="M145.64,22.35 C143.03,21.63 141.7,21.01 141.7,19.6 C141.7,18.19 143.23,17.16 145.35,17.16 C146.820943,17.199049 148.246085,17.6799035 149.44,18.54 C149.527654,18.6000256 149.636002,18.6216952 149.74,18.6 C149.843739,18.5815173 149.934676,18.5196802 149.99,18.43 L150.31,17.95 C150.431565,17.7699325 150.387169,17.5257522 150.21,17.4 C148.780021,16.4093572 147.089285,15.8631727 145.35,15.83 C142.43,15.83 140.35,17.43 140.35,19.68 C140.35,22.24 142.86,22.96 145.35,23.68 L145.47,23.68 C147.47,24.26 149.47,24.81 149.47,26.58 C149.47,28.07 147.87,29.16 145.66,29.16 C143.89513,29.1335234 142.194505,28.4935795 140.85,27.35 C140.766391,27.2804684 140.658076,27.2479741 140.55,27.26 C140.443888,27.2728919 140.347005,27.3267153 140.28,27.41 L139.93,27.87 C139.799543,28.0398349 139.825992,28.2822886 139.99,28.42 C141.579845,29.7313927 143.569284,30.4615592 145.63,30.49 C148.63,30.49 150.85,28.84 150.85,26.49 C150.85,23.73 148.03,22.95 145.76,22.33"
         id="path4630"
         fill="#FFFFFF" />
      <path
         d="M160.43,16.07 L155.89,16.07 L155.89,11.84 C155.892697,11.734844 155.852802,11.6330574 155.779368,11.5577409 C155.705935,11.4824244 155.605191,11.4399654 155.5,11.44 L154.94,11.44 C154.833913,11.44 154.732172,11.4821427 154.657157,11.5571573 C154.582143,11.6321718 154.54,11.7339134 154.54,11.84 L154.54,16.07 L152.83,16.07 C152.724809,16.0699654 152.624065,16.1124244 152.550632,16.1877409 C152.477198,16.2630574 152.437303,16.364844 152.44,16.47 L152.44,17 C152.437303,17.105156 152.477198,17.2069426 152.550632,17.2822591 C152.624065,17.3575756 152.724809,17.4000346 152.83,17.4 L154.54,17.4 L154.54,26.45 C154.54,29.04 155.93,30.52 158.35,30.52 C159.105508,30.5246028 159.852911,30.3642012 160.54,30.05 C160.681417,29.9863941 160.771718,29.845053 160.77,29.69 L160.77,29.1 C160.766221,28.9623758 160.695231,28.8353422 160.58,28.76 C160.463008,28.6899869 160.316992,28.6899869 160.2,28.76 C159.623898,29.0428928 158.991776,29.1932354 158.35,29.2 C156.72,29.2 155.89,28.26 155.89,26.41 L155.89,17.41 L160.43,17.41 C160.646999,17.4045733 160.820068,17.2270669 160.82,17.01 L160.82,16.5 C160.820068,16.2829331 160.646999,16.1054267 160.43,16.1"
         id="path4632"
         fill="#FFFFFF" />
      <path
         d="M169,15.86 C167.312306,15.87367 165.652523,16.2920451 164.16,17.08 C163.967569,17.1744268 163.883775,17.4037568 163.97,17.6 L164.18,18.08 C164.227732,18.1762809 164.309786,18.2511995 164.41,18.29 C164.509553,18.3295301 164.620447,18.3295301 164.72,18.29 C166.029599,17.5932699 167.486727,17.2195594 168.97,17.2 C171.09,17.2 173.61,17.96 173.61,21.57 L173.61,22.14 C172.113606,21.6958761 170.56091,21.4702131 169,21.47 C165.15,21.47 162.66,23.29 162.66,26.18 C162.66,29.07 165.45,30.59 168.04,30.59 C170.16484,30.677636 172.214296,29.7945673 173.61,28.19 L173.61,29.87 C173.609932,30.0870669 173.783001,30.2645733 174,30.27 L174.56,30.27 C174.780914,30.27 174.96,30.0909139 174.96,29.87 L174.96,21.54 C175.04804,20.045283 174.537043,18.5770657 173.54,17.46 C172.30591,16.3345763 170.666601,15.7604572 169,15.87 M168,29.25 C166.15,29.25 164,28.43 164,26.08 C164,23.73 166.57,22.79 169,22.79 C170.560783,22.7649349 172.114002,23.011961 173.59,23.52 L173.59,25 C173.59,27.06 171.47,29.29 168.04,29.29"
         id="path4634"
         fill="#FFFFFF" />
      <path
         d="M190.4,26.86 C190.320464,26.7894518 190.216115,26.7534693 190.11,26.76 C190.002184,26.7604678 189.899935,26.8079407 189.83,26.89 C188.289545,28.9542995 185.581745,29.7707003 183.156967,28.9019172 C180.732189,28.0331341 179.158984,25.6828755 179.28,23.11 C179.242436,21.5403537 179.836336,20.0212865 180.928558,18.8933458 C182.020781,17.765405 183.519958,17.1229473 185.09,17.11 C186.897182,17.1185231 188.607558,17.9279304 189.76,19.32 C189.915537,19.4724572 190.164463,19.4724572 190.32,19.32 L190.72,18.94 C190.795366,18.8661478 190.838497,18.7655077 190.84,18.66 C190.844643,18.5553 190.804667,18.4535424 190.73,18.38 C189.349269,16.7073109 187.28889,15.7450662 185.12,15.76 C181.130721,15.9065251 177.972351,19.1830307 177.972351,23.175 C177.972351,27.1669693 181.130721,30.4434749 185.12,30.59 C187.362477,30.600503 189.482887,29.5698506 190.86,27.8 C191.001204,27.6438556 191.001204,27.4061444 190.86,27.25 L190.4,26.86 Z"
         id="path4636"
         fill="#FFFFFF" />
      <path
         d="M205.44,29.59 L198.94,22.41 L204.99,16.76 C205.107949,16.6479788 205.146313,16.4756861 205.087037,16.324203 C205.027761,16.1727199 204.882653,16.0722205 204.72,16.07 L204,16.07 C203.899164,16.0703828 203.802395,16.109807 203.73,16.18 L195.15,24.26 L195.15,10.26 C195.15,10.0390861 194.970914,9.86 194.75,9.86 L194.19,9.86 C193.973001,9.86542666 193.799932,10.0429331 193.8,10.26 L193.8,29.81 C193.799932,30.0270669 193.973001,30.2045733 194.19,30.21 L194.75,30.21 C194.970914,30.21 195.15,30.0309139 195.15,29.81 L195.15,26 L198,23.3 L204.15,30.13 C204.228982,30.2111441 204.336784,30.2578582 204.45,30.26 L205.14,30.26 C205.296645,30.2574032 205.437355,30.1635969 205.5,30.02 C205.569303,29.876192 205.541337,29.7044013 205.43,29.59"
         id="path4638"
         fill="#FFFFFF" />
      <path
         d="M38.5,40 L38.5,39.66 C38.5048254,39.7165639 38.5048254,39.7734361 38.5,39.83 C38.5054863,39.8865339 38.5054863,39.9434661 38.5,40 Z"
         id="path4642"
         fill="#FF9066"
         opacity="0.25" />
      <path
         d="M211.08,13.7 C211.054451,13.7028569 211.0289,13.6946517 211.009791,13.6774539 C210.990683,13.6602562 210.979841,13.6357076 210.98,13.61 L210.98,11.81 L210.18,13.64 C210.18,13.64 210.09,13.7 210.06,13.7 C210.03,13.7 209.93,13.7 209.92,13.7 L209.11,11.86 L209.11,13.66 C209.11,13.7097056 209.069706,13.75 209.02,13.75 L208.79,13.75 C208.740294,13.75 208.7,13.7097056 208.7,13.66 L208.7,11.09 C208.7,11.0661305 208.709482,11.0432387 208.72636,11.0263604 C208.743239,11.0094821 208.766131,11 208.79,11 L209.14,11 C209.165201,10.9874968 209.194799,10.9874968 209.22,11 L210.06,12.92 L210.89,11 C210.915201,10.9874968 210.944799,10.9874968 210.97,11 L211.32,11 C211.369706,11 211.41,11.0402944 211.41,11.09 L211.41,13.61 C211.41,13.6597056 211.369706,13.7 211.32,13.7 L211.08,13.7 Z M207.14,13.7 C207.090294,13.7 207.05,13.6597056 207.05,13.61 L207.05,11.36 L206.31,11.36 C206.284451,11.3628569 206.2589,11.3546517 206.239791,11.3374539 C206.220683,11.3202562 206.209841,11.2957076 206.21,11.27 L206.21,11.09 C206.209841,11.0642924 206.220683,11.0397438 206.239791,11.0225461 C206.2589,11.0053483 206.284451,10.9971431 206.31,11 L208.21,11 C208.235549,10.9971431 208.2611,11.0053483 208.280209,11.0225461 C208.299317,11.0397438 208.310159,11.0642924 208.31,11.09 L208.31,11.27 C208.310159,11.2957076 208.299317,11.3202562 208.280209,11.3374539 C208.2611,11.3546517 208.235549,11.3628569 208.21,11.36 L207.48,11.36 L207.48,13.61 C207.480159,13.6357076 207.469317,13.6602562 207.450209,13.6774539 C207.4311,13.6946517 207.405549,13.7028569 207.38,13.7 L207.14,13.7 Z"
         id="path4644"
         fill="#FFFFFF" />
    </g>
  </g>
</svg>
