<?xml version="1.0" encoding="UTF-8" standalone="no"?>
<svg width="305px" height="65px" viewBox="0 0 305 65" version="1.1" xmlns="http://www.w3.org/2000/svg" xmlns:xlink="http://www.w3.org/1999/xlink" xmlns:sketch="http://www.bohemiancoding.com/sketch/ns">
    <!-- Generator: Sketch 3.4.2 (15855) - http://www.bohemiancoding.com/sketch -->
    <title>Slice 1</title>
    <desc>Created with Sketch.</desc>
    <defs>
        <path id="path-1" d="M0,0.917 L304.645,0.917 L304.645,64.94 L0,64.94"></path>
    </defs>
    <g id="Page-1" stroke="none" stroke-width="1" fill="none" fill-rule="evenodd" sketch:type="MSPage">
        <g sketch:type="MSLayerGroup" id="Critical_Stack_Logo_3PMS">
            <g>
                <path d="M116.833,14.84 L114.474,14.84 C114.06,14.84 113.724,15.176 113.724,15.59 L113.724,18.181 C113.724,18.595 114.06,18.931 114.474,18.931 L116.833,18.931 C117.247,18.931 117.583,18.595 117.583,18.181 L117.583,15.59 C117.583,15.176 117.247,14.84 116.833,14.84" id="Fill-7" fill="#FFFFFF" sketch:type="MSShapeGroup"></path>
                <path d="M141.62,14.84 L139.261,14.84 C138.847,14.84 138.511,15.176 138.511,15.59 L138.511,18.181 C138.511,18.595 138.847,18.931 139.261,18.931 L141.62,18.931 C142.034,18.931 142.37,18.595 142.37,18.181 L142.37,15.59 C142.37,15.176 142.034,14.84 141.62,14.84" id="Fill-8" fill="#FFFFFF" sketch:type="MSShapeGroup"></path>
                <path d="M301.422,16.241 L300.512,16.241 C300.396,16.241 300.309,16.328 300.309,16.444 L300.309,17.368 C300.309,17.484 300.396,17.57 300.512,17.57 L301.422,17.57 C301.885,17.57 302.161,17.238 302.161,16.905 C302.161,16.574 301.885,16.241 301.422,16.241 L301.422,16.241 L301.422,16.241 Z M302.547,19.001 C302.606,19.088 302.535,19.203 302.435,19.203 L302.406,19.203 C302.261,19.203 302.129,19.131 302.058,19.001 L301.567,18.177 C301.493,18.077 301.379,18.004 301.264,18.004 L300.512,18.004 C300.396,18.004 300.309,18.091 300.309,18.206 L300.309,19.001 C300.309,19.117 300.222,19.203 300.109,19.203 L300.078,19.203 C299.961,19.203 299.875,19.117 299.875,19.001 L299.875,16.067 C299.875,15.923 299.991,15.808 300.136,15.808 L301.437,15.808 C302.174,15.808 302.593,16.313 302.593,16.905 C302.593,17.281 302.418,17.642 302.101,17.831 C301.985,17.888 301.958,18.004 302.029,18.105 L302.547,19.001 L302.547,19.001 L302.547,19.001 Z M298.084,17.585 C298.084,19.276 299.443,20.634 301.135,20.634 C302.824,20.634 304.182,19.276 304.182,17.585 C304.182,15.895 302.824,14.536 301.135,14.536 C299.443,14.536 298.084,15.895 298.084,17.585 L298.084,17.585 L298.084,17.585 Z M297.621,17.585 C297.621,15.649 299.196,14.073 301.135,14.073 C303.069,14.073 304.645,15.649 304.645,17.585 C304.645,19.522 303.069,21.096 301.135,21.096 C299.196,21.096 297.621,19.522 297.621,17.585 L297.621,17.585 L297.621,17.585 Z" id="Fill-9" fill="#FFFFFF" sketch:type="MSShapeGroup"></path>
                <path d="M93.096,37.599 C92.791,37.33 92.327,37.356 92.055,37.66 C90.271,39.65 88.259,40.66 86.075,40.66 C81.992,40.66 78.794,37.277 78.794,32.884 C78.794,28.607 81.925,25.259 85.922,25.259 C88.598,25.259 90.37,26.693 91.886,28.245 C92.025,28.387 92.216,28.467 92.415,28.467 L92.416,28.467 C92.616,28.467 92.807,28.386 92.947,28.243 L94.283,26.868 C94.561,26.582 94.563,26.126 94.286,25.838 C92.581,24.062 90.091,22.021 85.96,22.021 C80.076,22.021 75.289,26.928 75.289,33.036 C75.289,39.025 80.076,43.898 85.96,43.898 C89.335,43.898 91.956,42.631 94.461,39.789 C94.731,39.483 94.702,39.016 94.396,38.744 L93.096,37.599" id="Fill-10" fill="#FFFFFF" sketch:type="MSShapeGroup"></path>
                <path d="M109.707,22.174 C106.62,22.05 103.737,23.506 101.787,26.049 L101.787,23.219 C101.787,22.81 101.455,22.479 101.047,22.479 L99.175,22.479 C98.766,22.479 98.434,22.81 98.434,23.219 L98.434,42.699 C98.434,43.107 98.766,43.439 99.175,43.439 L101.047,43.439 C101.455,43.439 101.787,43.107 101.787,42.699 L101.787,34.716 C101.787,28.499 105.654,25.717 109.487,25.717 L109.678,25.717 C110.086,25.717 110.418,25.385 110.418,24.976 L110.418,22.914 C110.418,22.516 110.104,22.19 109.707,22.174" id="Fill-11" fill="#FFFFFF" sketch:type="MSShapeGroup"></path>
                <path d="M116.59,22.479 L114.718,22.479 C114.309,22.479 113.978,22.811 113.978,23.22 L113.978,42.699 C113.978,43.107 114.309,43.439 114.718,43.439 L116.59,43.439 C116.999,43.439 117.331,43.107 117.331,42.699 L117.331,23.22 C117.331,22.811 116.999,22.479 116.59,22.479" id="Fill-12" fill="#FFFFFF" sketch:type="MSShapeGroup"></path>
                <path d="M133.701,22.479 L127.604,22.479 L127.604,16.994 C127.604,16.584 127.272,16.252 126.864,16.252 L124.992,16.252 C124.583,16.252 124.251,16.584 124.251,16.994 L124.251,22.479 L122.166,22.479 C121.756,22.479 121.424,22.811 121.424,23.22 L121.424,24.938 C121.424,25.347 121.756,25.679 122.166,25.679 L124.251,25.679 L124.251,37.695 C124.251,41.451 126.628,43.783 130.454,43.783 C131.729,43.783 132.803,43.551 133.935,43.027 C134.198,42.906 134.365,42.645 134.365,42.355 L134.365,40.599 C134.365,40.348 134.238,40.113 134.026,39.977 C133.816,39.84 133.55,39.82 133.322,39.923 C132.309,40.377 131.614,40.546 130.76,40.546 C128.606,40.546 127.604,39.58 127.604,37.505 L127.604,25.679 L133.701,25.679 C134.109,25.679 134.441,25.347 134.441,24.938 L134.441,23.22 C134.441,22.811 134.109,22.479 133.701,22.479" id="Fill-13" fill="#FFFFFF" sketch:type="MSShapeGroup"></path>
                <path d="M141.376,22.479 L139.504,22.479 C139.095,22.479 138.765,22.811 138.765,23.22 L138.765,42.699 C138.765,43.107 139.095,43.439 139.504,43.439 L141.376,43.439 C141.786,43.439 142.118,43.107 142.118,42.699 L142.118,23.22 C142.118,22.811 141.786,22.479 141.376,22.479" id="Fill-14" fill="#FFFFFF" sketch:type="MSShapeGroup"></path>
                <path d="M164.476,37.599 C164.171,37.33 163.708,37.356 163.435,37.66 C161.652,39.65 159.639,40.66 157.456,40.66 C153.373,40.66 150.174,37.277 150.174,32.884 C150.174,28.607 153.305,25.259 157.302,25.259 C159.977,25.259 161.75,26.693 163.266,28.245 C163.406,28.387 163.596,28.467 163.795,28.467 L163.796,28.467 C163.997,28.467 164.187,28.386 164.328,28.243 L165.664,26.868 C165.942,26.582 165.944,26.126 165.667,25.838 C163.96,24.062 161.471,22.021 157.34,22.021 C151.457,22.021 146.668,26.928 146.668,33.036 C146.668,39.025 151.457,43.898 157.34,43.898 C160.714,43.898 163.335,42.631 165.841,39.789 C166.112,39.483 166.083,39.016 165.776,38.744 L164.476,37.599" id="Fill-15" fill="#FFFFFF" sketch:type="MSShapeGroup"></path>
                <path d="M176.589,40.66 C174.148,40.66 171.677,39.379 171.677,36.855 C171.677,34.473 173.798,33.05 177.353,33.05 C179.77,33.05 181.724,33.409 183.221,33.768 L183.221,35.404 C183.221,38.4 180.37,40.66 176.589,40.66 M177.62,22.173 C174.574,22.173 172.258,23.058 170.395,23.922 C170.034,24.09 169.87,24.513 170.024,24.88 L170.712,26.523 C170.792,26.713 170.946,26.861 171.14,26.932 C171.333,27.003 171.548,26.99 171.731,26.896 C173.714,25.883 175.549,25.411 177.506,25.411 C180.073,25.411 183.13,26.301 183.181,30.521 C181.686,30.17 179.916,29.889 177.468,29.889 C171.844,29.889 168.209,32.668 168.209,37.047 C168.209,41.497 172.468,43.898 176.474,43.898 C179.643,43.898 181.805,42.656 183.182,41.397 L183.182,42.699 C183.182,43.108 183.514,43.44 183.923,43.44 L185.756,43.44 C186.166,43.44 186.497,43.108 186.497,42.699 L186.497,30.553 C186.497,25.306 183.178,22.173 177.62,22.173" id="Fill-16" fill="#FFFFFF" sketch:type="MSShapeGroup"></path>
                <path d="M194.615,14.076 L192.743,14.076 C192.333,14.076 192.002,14.408 192.002,14.817 L192.002,42.699 C192.002,43.107 192.333,43.439 192.743,43.439 L194.615,43.439 C195.024,43.439 195.356,43.107 195.356,42.699 L195.356,14.817 C195.356,14.408 195.024,14.076 194.615,14.076" id="Fill-17" fill="#FFFFFF" sketch:type="MSShapeGroup"></path>
                <path d="M209.539,32.026 C205.743,30.979 203.815,30.09 203.815,28.059 C203.815,26.018 206.043,24.536 209.115,24.536 C211.089,24.536 213.305,25.276 215.042,26.517 C215.167,26.607 215.326,26.644 215.478,26.613 C215.631,26.586 215.767,26.496 215.853,26.367 L216.316,25.671 C216.491,25.411 216.423,25.061 216.167,24.882 C214.133,23.462 211.497,22.614 209.115,22.614 C204.884,22.614 201.815,24.92 201.815,28.174 C201.815,31.864 205.466,32.901 208.997,33.905 L209.18,33.957 C212.129,34.795 214.917,35.584 214.917,38.145 C214.917,40.297 212.59,41.86 209.385,41.86 C206.936,41.86 204.393,40.909 202.412,39.25 C202.291,39.149 202.137,39.104 201.978,39.12 C201.823,39.137 201.681,39.217 201.585,39.342 L201.083,40 C200.896,40.243 200.934,40.59 201.17,40.789 C203.405,42.662 206.461,43.782 209.346,43.782 C213.731,43.782 216.916,41.396 216.916,38.029 C216.916,34.039 212.824,32.922 209.539,32.026" id="Fill-18" fill="#FFFFFF" sketch:type="MSShapeGroup"></path>
                <path d="M230.986,22.962 L224.411,22.962 L224.411,16.851 C224.411,16.534 224.153,16.276 223.835,16.276 L223.024,16.276 C222.707,16.276 222.45,16.534 222.45,16.851 L222.45,22.962 L219.972,22.962 C219.654,22.962 219.397,23.22 219.397,23.537 L219.397,24.271 C219.397,24.588 219.654,24.846 219.972,24.846 L222.45,24.846 L222.45,37.913 C222.45,41.643 224.462,43.782 227.971,43.782 C229.109,43.782 230.176,43.557 231.148,43.111 C231.352,43.018 231.483,42.813 231.483,42.59 L231.483,41.739 C231.483,41.54 231.378,41.355 231.209,41.25 C231.041,41.146 230.829,41.135 230.651,41.225 C229.832,41.635 228.879,41.86 227.971,41.86 C225.609,41.86 224.411,40.506 224.411,37.836 L224.411,24.846 L230.986,24.846 C231.303,24.846 231.561,24.588 231.561,24.271 L231.561,23.537 C231.561,23.22 231.303,22.962 230.986,22.962" id="Fill-19" fill="#FFFFFF" sketch:type="MSShapeGroup"></path>
                <path d="M242.037,41.976 C239.341,41.976 236.195,40.801 236.195,37.41 C236.195,33.902 239.931,32.652 243.427,32.652 C245.9,32.652 248.026,32.991 250.08,33.716 L250.08,35.788 C250.08,38.764 247.004,41.976 242.037,41.976 M243.388,22.653 C241.015,22.653 238.851,23.196 236.373,24.412 C236.094,24.548 235.974,24.879 236.1,25.161 L236.41,25.857 C236.473,25.999 236.59,26.109 236.736,26.163 C236.881,26.216 237.043,26.209 237.183,26.141 C239.468,25.044 241.312,24.575 243.349,24.575 C246.42,24.575 250.08,25.669 250.08,30.88 L250.08,31.706 C248.052,31.083 245.662,30.73 243.388,30.73 C237.804,30.73 234.195,33.368 234.195,37.527 C234.195,41.904 238.241,43.898 241.998,43.898 C245.773,43.898 248.535,42.352 250.08,40.437 L250.08,42.859 C250.08,43.177 250.337,43.436 250.654,43.436 L251.465,43.436 C251.782,43.436 252.041,43.177 252.041,42.859 L252.041,30.841 C252.041,28.334 251.327,26.296 249.977,24.947 C248.457,23.425 246.239,22.653 243.388,22.653" id="Fill-20" fill="#FFFFFF" sketch:type="MSShapeGroup"></path>
                <path d="M274.464,38.537 C274.35,38.431 274.193,38.375 274.042,38.383 C273.888,38.391 273.743,38.461 273.641,38.576 C271.599,40.896 269.428,41.976 266.806,41.976 C262.136,41.976 258.338,38.039 258.338,33.122 C258.338,28.243 262.041,24.42 266.768,24.42 C269.351,24.42 271.502,25.431 273.536,27.601 C273.752,27.832 274.115,27.844 274.348,27.627 L274.927,27.086 C275.039,26.982 275.105,26.838 275.11,26.685 C275.114,26.533 275.058,26.384 274.953,26.272 C273.193,24.407 270.848,22.499 266.806,22.499 C261.034,22.499 256.338,27.282 256.338,33.237 C256.338,39.115 261.017,43.898 266.768,43.898 C270.05,43.898 272.772,42.58 275.088,39.871 C275.287,39.638 275.268,39.287 275.043,39.078 L274.464,38.537" id="Fill-21" fill="#FFFFFF" sketch:type="MSShapeGroup"></path>
                <path d="M296.291,42.473 L286.858,32.111 L295.639,23.958 C295.812,23.797 295.87,23.547 295.783,23.327 C295.697,23.107 295.484,22.962 295.248,22.962 L294.166,22.962 C294.021,22.962 293.879,23.018 293.774,23.118 L281.33,34.772 L281.33,14.648 C281.33,14.331 281.072,14.073 280.754,14.073 L279.945,14.073 C279.626,14.073 279.37,14.331 279.37,14.648 L279.37,42.859 C279.37,43.177 279.626,43.436 279.945,43.436 L280.754,43.436 C281.072,43.436 281.33,43.177 281.33,42.859 L281.33,37.275 L285.513,33.397 L294.436,43.246 C294.544,43.365 294.7,43.436 294.862,43.436 L295.867,43.436 C296.094,43.436 296.299,43.3 296.393,43.092 C296.484,42.884 296.444,42.641 296.291,42.473" id="Fill-22" fill="#FFFFFF" sketch:type="MSShapeGroup"></path>
            </g>
        </g>
    </g>
</svg>
