<?xml version="1.0" encoding="UTF-8" standalone="no"?>
<svg width="64px" height="65px" viewBox="0 0 64 65" version="1.1" xmlns="http://www.w3.org/2000/svg" xmlns:xlink="http://www.w3.org/1999/xlink" xmlns:sketch="http://www.bohemiancoding.com/sketch/ns">
    <!-- Generator: Sketch 3.3.3 (12072) - http://www.bohemiancoding.com/sketch -->
    <title>Slice 1</title>
    <desc>Created with Sketch.</desc>
    <defs>
        <path id="path-1" d="M0.06,0.917 L63.457,0.917 L63.457,64.94 L0.06,64.94 L0.06,0.917 Z"></path>
    </defs>
    <g id="Page-1" stroke="none" stroke-width="1" fill="none" fill-rule="evenodd" sketch:type="MSPage">
        <g id="Critical_Stack_Logo_White" sketch:type="MSLayerGroup">
            <mask id="mask-2" sketch:name="Clip 2" fill="white">
                <use xlink:href="#path-1"></use>
            </mask>
            <g id="Clip-2"></g>
            <path d="M53.373,23.732 C53.369,23.745 53.365,23.755 53.361,23.767 L53.371,32.09 C53.371,32.496 53.039,32.972 52.66,33.111 L32.197,40.652 C31.779,40.808 30.99,40.818 30.566,40.676 L10.107,33.795 C9.729,33.668 9.396,33.206 9.396,32.805 L9.381,19.035 C9.381,18.629 9.711,18.153 10.09,18.013 L30.551,10.472 C30.772,10.391 31.086,10.343 31.414,10.343 C31.709,10.343 31.98,10.38 32.182,10.449 L46.336,15.209 L46.338,15.209 L47.209,15.5 C45.436,16.157 37.854,18.958 37.854,18.958 C37.482,19.093 36.785,19.104 36.414,18.978 L32.268,17.583 C31.775,17.417 30.947,17.43 30.465,17.608 L20.742,21.192 C20.199,21.393 19.756,22.031 19.758,22.608 L19.764,28.88 C19.766,29.464 20.223,30.083 20.779,30.255 L30.191,33.167 C30.475,33.254 30.785,33.272 30.998,33.272 C31.367,33.272 31.73,33.215 31.994,33.118 L41.721,29.536 C42.254,29.337 42.727,28.712 42.77,28.145 L42.92,26.186 C42.949,25.823 43.273,25.393 43.615,25.266 C43.615,25.266 50.113,22.896 52.818,21.918 C53.092,21.821 53.373,22.023 53.373,22.313 L53.373,23.732 L53.373,23.732 Z M53.338,39.352 C53.336,39.756 53.004,40.234 52.625,40.377 L31.924,48.096 C31.51,48.25 30.725,48.248 30.315,48.096 L9.908,40.495 C9.529,40.352 9.197,39.875 9.197,39.471 L9.201,36.704 C9.201,36.457 9.322,36.309 9.525,36.309 C9.584,36.309 9.645,36.321 9.711,36.342 L30.027,43.48 C30.58,43.676 31.518,43.672 32.068,43.473 L52.844,35.965 C53.131,35.862 53.344,36.002 53.344,36.316 L53.338,39.352 L53.338,39.352 Z M53.324,46.791 C53.324,47.195 52.992,47.672 52.611,47.812 L32.002,55.455 C31.592,55.605 30.805,55.605 30.393,55.453 L9.986,47.851 C9.605,47.707 9.275,47.229 9.275,46.826 L9.281,44.06 C9.281,43.813 9.402,43.666 9.604,43.666 C9.662,43.666 9.723,43.679 9.789,43.701 L30.105,50.838 C30.66,51.031 31.596,51.029 32.148,50.83 L52.826,43.4 C53.117,43.297 53.33,43.439 53.33,43.754 L53.324,46.791 L53.324,46.791 Z M60.687,11.757 L34.055,1.577 C32.529,0.698 30.035,0.698 28.512,1.577 L2.771,11.757 C1.246,12.637 0,14.797 0,16.557 L0,49.361 C0,51.122 1.246,53.281 2.771,54.163 L28.512,64.34 C30.035,65.221 32.529,65.221 34.055,64.34 L60.687,54.163 C62.211,53.281 63.457,51.122 63.457,49.361 L63.457,16.557 C63.457,14.797 62.211,12.637 60.687,11.757 L60.687,11.757 Z" id="Fill-1" fill="#FFFFFF" sketch:type="MSShapeGroup" mask="url(#mask-2)"></path>
        </g>
    </g>
</svg>